# xmcd CD database file
#
# Track frame offsets:
#	150
#	16851
#	30911
#	49130
#	66589
#	86820
#	99961
#	122770
#	143810
#	165142
#
# Disc length: 2645 seconds
#
# Revision: 0
# Processed by: cddbd v1.5.1PL0 Copyright (c) Steve Scherf et al.
# Submitted via: CDex 1.50beta9
#
DISCID=760a530a
DTITLE=RICKY SKAGGS - LIVE IN LONDON
DYEAR=1985
DGENRE=Country
TTITLE0=UNCLE PEN
TTITLE1=HEARTBROKE
TTITLE2=SHE DIDN'T SAY WHY
TTITLE3=CAJUN MOON
TTITLE4=COUNTRY BOY
TTITLE5=I'VE GOT A NEW HEARTACHE
TTITLE6=YOU MAKE ME FEEL LIKE A MAN
TTITLE7=ROCKIN' THE BOAT
TTITLE8=HONEY 'OPEN THAT DOOR
TTITLE9=DON'T GET ABOVE YOUR RAISING
EXTD=YEAR: 1985
EXTT0=
EXTT1=
EXTT2=
EXTT3=
EXTT4=
EXTT5=
EXTT6=
EXTT7=
EXTT8=
EXTT9=
PLAYORDER=
